<svg width="40" height="40" viewBox="0 0 40 40" fill="none" xmlns="http://www.w3.org/2000/svg">
<path d="M14.8982 25.5199C17.8742 25.5199 19.9222 23.5839 19.9222 20.0319V19.6799C19.9222 16.0159 17.9222 14.1919 14.9942 14.1919C12.0022 14.1919 9.97021 16.1439 9.97021 19.6799V20.0319C9.97021 23.6639 11.9382 25.5199 14.8982 25.5199ZM14.9622 23.9999C12.8662 23.9999 12.0662 22.4959 12.0662 20.0159V19.4559C12.0662 17.2319 12.9942 15.7279 14.8982 15.7279C17.0262 15.7439 17.8262 17.2319 17.8262 19.6959V20.2399C17.8262 22.4799 16.8822 23.9999 14.9622 23.9999Z" fill="white"/>
<path d="M28.1601 25.3439H30.4321C29.0561 23.4079 27.6641 21.4879 26.2721 19.5679L30.2081 14.3679H28.1761C26.8161 16.1599 25.4561 17.9679 24.1121 19.7759L28.1601 25.3439ZM21.9521 25.3439H23.9201V14.3679H21.9521V25.3439Z" fill="white"/>
</svg>
